<svg version="1.1" xmlns="http://www.w3.org/2000/svg" xmlns:xlink="http://www.w3.org/1999/xlink" width="156.69856" height="70.30761" viewBox="0,0,156.69856,70.30761"><g transform="translate(-160.27058,-147.34619)"><g data-paper-data="{&quot;isPaintingLayer&quot;:true}" fill-rule="nonzero" stroke-linecap="butt" stroke-linejoin="miter" stroke-miterlimit="10" stroke-dasharray="" stroke-dashoffset="0" style="mix-blend-mode: normal"><path d="M161.27058,212.48179c0,-11.48873 0,-43.27829 0,-51.46296c0,-3.72993 3.41087,-7.67263 7.46658,-7.67263c15.03754,0 107.37061,0 136.00926,0c5.3374,0 8.46244,2.54372 8.46244,5.22201c0,6.44844 0,33.85791 0,48.60391c0,5.68043 -2.08308,9.48168 -4.78651,9.48168c-13.16505,0 -116.71477,0 -141.72737,0c-3.4664,0 -5.4244,-1.56223 -5.4244,-4.17202z" fill="#b04646" stroke="#000000" stroke-width="2"/><path d="M164.03086,207.48179c0,-11.48873 0,-43.27829 0,-51.46296c0,-3.72993 3.41087,-7.67263 7.46658,-7.67263c15.03755,0 107.37061,0 136.00926,0c5.3374,0 8.46243,2.54372 8.46243,5.22202c0,6.44845 0,33.8579 0,48.60391c0,5.68043 -2.08308,9.48169 -4.78651,9.48169c-13.16505,0 -116.71477,0 -141.72737,0c-3.46639,0 -5.4244,-1.56223 -5.4244,-4.17202z" fill="#ff6666" stroke="#000000" stroke-width="2"/><text transform="translate(181.95679,175.89158) scale(0.63058,0.63058)" font-size="40" xml:space="preserve" fill="#b04646" fill-rule="nonzero" stroke="none" stroke-width="1" stroke-linecap="butt" stroke-linejoin="miter" stroke-miterlimit="10" stroke-dasharray="" stroke-dashoffset="0" font-family="Sans Serif" font-weight="normal" text-anchor="start" style="mix-blend-mode: normal"><tspan x="0" dy="0">Upgrade</tspan></text><text transform="translate(200.90485,201.35525) scale(0.5,0.5)" font-size="40" xml:space="preserve" fill="#b04646" fill-rule="nonzero" stroke="none" stroke-width="1" stroke-linecap="butt" stroke-linejoin="miter" stroke-miterlimit="10" stroke-dasharray="" stroke-dashoffset="0" font-family="Sans Serif" font-weight="normal" text-anchor="start" style="mix-blend-mode: normal"><tspan x="0" dy="0">Cost:50</tspan></text></g></g></svg>